<svg width="633" height="632" viewBox="0 0 633 632" fill="none" xmlns="http://www.w3.org/2000/svg">
<g clip-path="url(#clip0_1_12)">
<path d="M172.075 315.972C172.075 236.432 236.548 171.959 316.088 171.959C395.627 171.959 460.1 236.432 460.1 315.972C460.1 395.511 395.627 459.984 316.088 459.984C236.548 459.984 172.075 395.511 172.075 315.972Z" fill="#EC520D"/>
<path d="M149.107 268.33C139.442 303.181 140.92 340.819 153.428 374.989C133.87 369.929 115.449 359.809 100.155 344.515C54.6149 298.974 54.6149 225.177 100.155 179.693L103.396 176.396C108.683 171.108 113.459 171.734 116.245 174.52C118.917 177.192 119.827 178.499 119.486 184.526C119.486 184.526 119.258 231.26 149.107 268.33Z" fill="#EC520D"/>
<path d="M230.351 163.943C198.854 181.738 173.326 209.426 157.975 242.402C147.741 225.061 141.828 204.821 141.828 183.216C141.828 118.8 194.021 66.6076 258.437 66.6076H263.042C270.49 66.6076 273.447 70.4737 273.447 74.3967C273.447 78.1491 273.162 79.741 268.614 83.7208C268.614 83.7208 235.468 116.64 230.351 163.943Z" fill="#EC520D"/>
<path d="M365.665 148.99C330.984 138.699 293.346 139.552 258.949 151.435C264.35 131.99 274.811 113.74 290.333 98.7304C336.669 53.9859 410.466 55.2936 455.154 101.573L458.338 104.871C463.568 110.272 462.829 115.048 460.043 117.777C457.314 120.392 456.007 121.302 449.923 120.79C449.923 120.79 403.246 119.823 365.665 148.99Z" fill="#EC520D"/>
<path d="M469.083 233.021C451.799 201.239 424.623 175.2 391.932 159.28C409.443 149.331 429.797 143.816 451.401 144.214C515.761 145.351 567.044 198.396 565.906 262.813L565.793 267.361C565.679 274.866 561.813 277.765 557.89 277.652C554.081 277.595 552.546 277.31 548.623 272.705C548.623 272.705 516.329 238.991 469.083 233.021Z" fill="#EC520D"/>
<path d="M483.126 364.866C493.36 330.185 492.564 292.548 480.682 258.151C500.126 263.552 518.376 274.013 533.386 289.534C578.13 335.871 576.823 409.668 530.543 454.356L527.245 457.539C521.844 462.77 517.068 462.031 514.339 459.245C511.724 456.516 510.814 455.208 511.269 449.182C511.269 449.182 512.293 402.447 483.126 364.866Z" fill="#EC520D"/>
<path d="M400.403 468.171C432.185 450.887 458.224 423.711 474.143 391.02C484.093 408.531 489.608 428.885 489.21 450.489C488.073 514.849 435.027 566.131 370.668 564.994L366.063 564.881C358.558 564.767 355.715 560.901 355.772 556.978C355.829 553.169 356.113 551.634 360.718 547.711C360.718 547.711 394.433 515.417 400.403 468.171Z" fill="#EC520D"/>
<path d="M267.989 483.01C302.67 493.301 340.308 492.448 374.705 480.565C369.303 500.01 358.842 518.26 343.321 533.27C296.985 578.014 223.187 576.706 178.5 530.427L175.316 527.129C170.085 521.728 170.824 516.952 173.61 514.223C176.339 511.608 177.647 510.698 183.673 511.21C183.673 511.21 230.408 512.177 267.989 483.01Z" fill="#EC520D"/>
<path d="M163.717 400.344C181.513 431.841 209.201 457.369 242.177 472.719C224.779 482.953 204.596 488.866 182.991 488.866C118.575 488.866 66.3826 436.674 66.3826 372.258V367.652C66.3826 360.204 70.2487 357.248 74.1716 357.248C77.924 357.248 79.516 357.532 83.4958 362.081C83.4958 362.081 116.415 395.227 163.717 400.344Z" fill="#EC520D"/>
</g>
<defs>
<clipPath id="clip0_1_12">
<rect width="501" height="500" fill="white" transform="translate(66 66)"/>
</clipPath>
</defs>
</svg>
